<svg xmlns="http://www.w3.org/2000/svg" viewBox="0 0 100 100">
  <polygon points="50,5 95,50 50,95 5,50" fill="#ffffff" stroke="#000" stroke-width="2"/>
  <path d="M30 35 L30 50 C30 55 25 60 25 70 L40 70 C40 60 35 55 35 50 L35 35 Z" fill="#000"/>
  <path d="M60 35 L60 50 C60 55 55 60 55 70 L70 70 C70 60 65 55 65 50 L65 35 Z" fill="#000"/>
  <rect x="25" y="70" width="50" height="8" fill="#000"/>
  <path d="M30 78 L30 85 M40 78 L40 88 M50 78 L50 85 M60 78 L60 88 M70 78 L70 85" stroke="#000" stroke-width="2"/>
</svg>
